<svg width="34" height="33" viewBox="0 0 34 33" fill="none" xmlns="http://www.w3.org/2000/svg">
<path d="M31.0265 8.693e-05C31.662 -0.00530605 32.2741 0.240421 32.7294 0.683839C33.1848 1.12726 33.4467 1.73251 33.4582 2.36801V30.4657C33.4472 31.1016 33.1856 31.7076 32.7302 32.1517C32.2748 32.5958 31.6625 32.8421 31.0265 32.8372H3.04375C2.40915 32.8412 1.79866 32.5944 1.34499 32.1507C0.891331 31.7069 0.631178 31.102 0.621094 30.4675V2.37166C0.630702 1.73681 0.890646 1.13145 1.34436 0.687301C1.79807 0.243153 2.40884 -0.00383377 3.04375 8.693e-05H31.0265ZM22.0911 11.1282C21.1567 11.0943 20.2307 11.3145 19.4115 11.7652C18.5923 12.2159 17.9107 12.8803 17.4392 13.6877H17.3735V11.5223H12.6614V27.3644H17.5724V19.5272C17.5724 17.4603 17.9628 15.4591 20.5204 15.4591C23.0416 15.4591 23.0744 17.8234 23.0744 19.6604V27.3644H27.9854V18.6735C27.9854 14.4083 27.0678 11.1282 22.0911 11.1282ZM9.57651 11.5223H4.65824V27.3644H9.57287V11.5223H9.57651ZM7.11738 3.64866C6.36219 3.65298 5.63927 3.9554 5.10595 4.49009C4.57262 5.02478 4.27206 5.74847 4.26967 6.50367C4.27254 7.25886 4.57357 7.98236 5.10723 8.51671C5.6409 9.05106 6.36401 9.35301 7.1192 9.35685L7.37825 9.34591C8.08541 9.27721 8.7419 8.94846 9.2205 8.42334C9.6991 7.89823 9.96574 7.21415 9.96873 6.50367L9.95779 6.24462C9.89044 5.53709 9.56276 4.87978 9.03828 4.40014C8.51381 3.9205 7.82809 3.65269 7.11738 3.64866Z" fill="white" fill-opacity="0.7"/>
</svg>
