<svg width="33" height="33" viewBox="0 0 33 33" fill="none" xmlns="http://www.w3.org/2000/svg">
<path d="M9.61979 0.115155C7.87212 0.197248 6.67904 0.476364 5.63555 0.886828C4.54101 1.30052 3.54988 1.94799 2.73129 2.78409C1.89755 3.60566 1.25318 4.5993 0.84315 5.69565C0.438158 6.73914 0.164516 7.93405 0.0878957 9.68171C0.0112757 11.4294 -0.00696749 11.9913 0.00215394 16.4498C0.0112754 20.9084 0.0313426 21.4666 0.11526 23.2179C0.199177 24.9656 0.476469 26.1587 0.886933 27.2022C1.30062 28.2967 1.94809 29.2878 2.78419 30.1064C3.60595 30.9408 4.60034 31.5852 5.69758 31.9946C6.74107 32.3977 7.93597 32.6732 9.68364 32.7498C11.4313 32.8264 11.9932 32.8447 16.4517 32.8356C20.9085 32.8264 21.4685 32.8064 23.2198 32.7243C24.9712 32.6404 26.1588 32.3612 27.2023 31.9526C28.2968 31.5389 29.2879 30.8914 30.1065 30.0553C30.9404 29.2332 31.5848 28.2389 31.9947 27.142C32.3997 26.0985 32.6733 24.9036 32.7499 23.1577C32.8265 21.4064 32.8448 20.8445 32.8357 16.3878C32.8265 11.9292 32.8065 11.371 32.7244 9.61969C32.6405 7.86837 32.3632 6.67894 31.9527 5.63544C31.5386 4.54112 30.8912 3.55008 30.0554 2.73118C29.2337 1.89681 28.2393 1.25236 27.1421 0.843045C26.0986 0.439878 24.9037 0.164411 23.156 0.0877909C21.4083 0.0129952 20.8464 -0.00707223 16.3879 0.0020492C11.9293 0.0111706 11.3711 0.0294136 9.61979 0.115155ZM9.81134 29.7963C8.20962 29.727 7.34126 29.4606 6.76113 29.2381C6.04799 28.9756 5.40234 28.5574 4.87117 28.014C4.3241 27.4858 3.9032 26.841 3.63978 26.1276C3.41357 25.5494 3.14357 24.681 3.06878 23.0811C2.98669 21.348 2.97027 20.8299 2.95932 16.4462C2.95202 12.0624 2.96844 11.5443 3.04324 9.81306C3.11256 8.21316 3.37891 7.34298 3.60147 6.76468C3.897 5.99665 4.25274 5.45119 4.82739 4.87472C5.35529 4.32816 5.99934 3.90732 6.71188 3.64332C7.29018 3.41711 8.15854 3.14712 9.75844 3.07232C11.4915 2.99023 12.0096 2.97381 16.3934 2.96287C20.7753 2.95374 21.2952 2.97016 23.0283 3.04678C24.6264 3.11611 25.4984 3.38063 26.0749 3.60501C26.8429 3.90055 27.3883 4.25628 27.9666 4.82911C28.5431 5.40376 28.8988 5.9474 29.198 6.71542C29.4242 7.29372 29.6924 8.16026 29.769 9.76198C29.8511 11.4951 29.8694 12.0131 29.8785 16.3951C29.8858 20.777 29.8712 21.2988 29.7946 23.0282C29.7253 24.6299 29.4589 25.4983 29.2363 26.0784C28.974 26.792 28.5551 27.4378 28.0104 27.9684C27.4824 28.5148 26.8384 28.9356 26.1259 29.1997C25.5476 29.426 24.6774 29.6941 23.0794 29.7708C21.3463 29.8528 20.8282 29.8693 16.4444 29.8802C12.0607 29.8893 11.5426 29.8711 9.81134 29.7963ZM23.1961 7.64398C23.1966 7.90272 23.248 8.15882 23.3475 8.39768C23.447 8.63654 23.5925 8.85346 23.7758 9.03608C23.9591 9.21869 24.1765 9.36341 24.4158 9.46198C24.655 9.56056 24.9113 9.61104 25.17 9.61056C25.4287 9.61008 25.6848 9.55865 25.9237 9.45919C26.1626 9.35974 26.3795 9.21421 26.5621 9.03092C26.7447 8.84763 26.8894 8.63016 26.988 8.39094C27.0866 8.15172 27.1371 7.89542 27.1366 7.63669C27.1356 7.11415 26.9271 6.6134 26.5569 6.24459C26.1868 5.87579 25.6852 5.66914 25.1627 5.67011C24.6402 5.67107 24.1394 5.87958 23.7706 6.24975C23.4018 6.61993 23.1952 7.12145 23.1961 7.64398ZM7.98888 16.4352C7.99103 17.5423 8.21122 18.638 8.63686 19.66C9.0625 20.682 9.68526 21.6101 10.4696 22.3913C11.2539 23.1726 12.1844 23.7918 13.208 24.2134C14.2316 24.6351 15.3283 24.851 16.4353 24.8488C17.5424 24.8467 18.6382 24.6265 19.6601 24.2008C20.6821 23.7752 21.6102 23.1524 22.3914 22.3681C23.1727 21.5838 23.7919 20.6533 24.2135 19.6297C24.6352 18.6061 24.8511 17.5094 24.8489 16.4024C24.8446 14.1666 23.9522 12.0241 22.3682 10.4463C20.7842 8.8684 18.6383 7.98442 16.4025 7.98877C14.1667 7.99313 12.0242 8.88547 10.4464 10.4695C8.86851 12.0535 7.98452 14.1994 7.98888 16.4352ZM10.946 16.4297C10.9431 14.9783 11.517 13.5851 12.5413 12.5566C13.5656 11.5282 14.9565 10.9488 16.408 10.9459C17.8595 10.943 19.2526 11.5169 20.2811 12.5412C21.3095 13.5655 21.8889 14.9564 21.8918 16.4079C21.8932 17.1266 21.7531 17.8385 21.4794 18.5031C21.2056 19.1676 20.8037 19.7717 20.2965 20.281C19.7894 20.7902 19.1868 21.1945 18.5234 21.4709C17.8599 21.7472 17.1486 21.8902 16.4298 21.8917C15.7111 21.8931 14.9992 21.753 14.3346 21.4792C13.6701 21.2055 13.066 20.8036 12.5567 20.2964C11.5283 19.2721 10.9489 17.8812 10.946 16.4297Z" fill="white" fill-opacity="0.7"/>
</svg>
