<svg width="122" height="44" viewBox="0 0 122 44" fill="none" xmlns="http://www.w3.org/2000/svg">
<path d="M8.1 13.19C8.21857 13.6152 8.21857 14.0648 8.1 14.49C8.01794 14.867 7.79561 15.1986 7.47807 15.4178C7.16054 15.6369 6.77156 15.7271 6.39 15.67C6.16691 15.6992 5.94014 15.6794 5.72545 15.6121C5.51076 15.5448 5.3133 15.4316 5.14677 15.2803C4.98025 15.129 4.84866 14.9432 4.76115 14.736C4.67364 14.5287 4.6323 14.3049 4.64 14.08V12.37H0V13.73C0 17.65 3.06 18.83 6.34 18.83C9.62 18.83 12.08 17.75 12.5 14.83C12.6557 13.873 12.6557 12.897 12.5 11.94C11.75 8.25 5.13 7.15 4.63 5.1C4.56987 4.79292 4.56987 4.47708 4.63 4.17C4.69155 3.80881 4.89032 3.48539 5.18477 3.26734C5.47923 3.0493 5.84657 2.95351 6.21 3C6.4245 2.97905 6.64098 3.0052 6.84432 3.07661C7.04766 3.14803 7.23294 3.263 7.38723 3.41347C7.54152 3.56395 7.66108 3.74631 7.73755 3.9478C7.81403 4.14929 7.84558 4.36505 7.83 4.58V5.67H12.18V4.43C12.18 0.6 8.77 0 6.3 0C3.2 0 0.67 1 0.2 3.91C0.0460857 4.6925 0.0460857 5.4975 0.2 6.28C0.95 9.88 7.2 10.92 8.05 13.19" fill="white"/>
<path d="M64.7795 13.15C64.9031 13.5711 64.9031 14.0188 64.7795 14.44C64.6997 14.8135 64.4805 15.1425 64.1664 15.3599C63.8524 15.5773 63.4672 15.6668 63.0895 15.61C62.8694 15.6301 62.6475 15.603 62.4387 15.5303C62.2299 15.4577 62.039 15.3412 61.879 15.1887C61.7189 15.0362 61.5933 14.8512 61.5106 14.6462C61.4279 14.4412 61.3901 14.2208 61.3995 14V12.35H56.7695V13.69C56.7695 17.57 59.7695 18.75 63.0495 18.75C66.3295 18.75 68.7295 17.67 69.1495 14.75C69.3095 13.8033 69.3095 12.8366 69.1495 11.89C68.4295 8.23997 61.8795 7.14997 61.3795 5.11997C61.308 4.81747 61.308 4.50247 61.3795 4.19997C61.4387 3.84027 61.6358 3.51783 61.929 3.30121C62.2222 3.08459 62.5883 2.99087 62.9495 3.03997C63.1628 3.02035 63.3778 3.04759 63.5795 3.11977C63.7812 3.19195 63.9646 3.30733 64.117 3.45783C64.2694 3.60833 64.3871 3.79032 64.4618 3.99106C64.5365 4.1918 64.5665 4.40644 64.5495 4.61997V5.70997H68.8495V4.47997C68.8195 0.689966 65.4495 0.0899658 62.9995 0.0899658C59.9995 0.0899658 57.4295 1.08997 56.9995 3.96997C56.8555 4.74332 56.8555 5.53661 56.9995 6.30997C57.7495 9.87997 63.8895 10.9 64.7695 13.15" fill="white"/>
<path d="M100.961 14.7101L100.721 0.560059H105.031V17.9601H98.8311L94.4211 3.35006L94.6711 17.9601H90.3711V0.560059H96.8511L100.961 14.7101Z" fill="white"/>
<path d="M22.5914 1.86006L20.1514 18.1401H15.4414L18.6814 0.560059H26.4314L29.6414 18.1401H24.9514L22.5914 1.86006Z" fill="white"/>
<path d="M48.0311 1.86006L45.0211 18.1401H40.5911L37.6011 1.86006L37.4811 18.1401H33.1211L33.5111 0.560059H40.6211L42.8211 14.3001L45.0211 0.560059H52.1211L52.5011 18.1401H48.1411L48.0311 1.86006Z" fill="white"/>
<path d="M79.4209 15.5201C79.8091 15.5493 80.1945 15.4352 80.5041 15.1993C80.8138 14.9634 81.0261 14.6221 81.1009 14.2401C81.117 14.017 81.117 13.7931 81.1009 13.5701V0.560059H85.5109V13.1701C85.5109 13.5001 85.5109 14.1701 85.5109 14.3201C85.2109 17.6101 82.6409 18.6701 79.4309 18.6701C76.2209 18.6701 73.6509 17.6101 73.3509 14.3201C73.3509 14.1501 73.2909 13.5001 73.3509 13.1701V0.560059H77.7709V13.5601C77.7498 13.7829 77.7498 14.0072 77.7709 14.2301C77.8393 14.6133 78.0486 14.9572 78.3576 15.194C78.6666 15.4308 79.053 15.5436 79.4409 15.5101" fill="white"/>
<path d="M115.791 15.33C116.194 15.3792 116.601 15.2763 116.932 15.0414C117.263 14.8065 117.494 14.4565 117.581 14.06C117.597 13.8369 117.597 13.613 117.581 13.39V10.84H115.781V8.26996H122.001V13C122.001 13.32 122.001 13.57 121.941 14.16C121.651 17.36 118.941 18.5 115.811 18.5C112.681 18.5 109.971 17.36 109.671 14.16C109.651 13.7735 109.651 13.3864 109.671 13V5.58996C109.671 5.26996 109.671 4.72996 109.741 4.42996C110.131 1.13996 112.741 0.0799561 115.861 0.0799561C118.981 0.0799561 121.651 1.07996 121.991 4.42996C121.991 4.98996 121.991 5.58996 121.991 5.58996V6.16996H117.601V5.16996C117.601 5.16996 117.601 4.74996 117.541 4.48996C117.424 4.12139 117.193 3.79958 116.881 3.57118C116.569 3.34278 116.193 3.21966 115.806 3.21966C115.419 3.21966 115.043 3.34278 114.731 3.57118C114.419 3.79958 114.188 4.12139 114.071 4.48996C114.012 4.76598 113.986 5.04782 113.991 5.32996V13.33C113.97 13.5528 113.97 13.7771 113.991 14C114.078 14.3946 114.308 14.743 114.637 14.9777C114.965 15.2124 115.37 15.3165 115.771 15.27" fill="white"/>
<path d="M0.929688 43V27.63H6.13969C8.35969 27.63 9.13969 28.35 9.70969 29.2C10.1059 29.8122 10.3272 30.5211 10.3497 31.25C10.3497 33.16 9.66969 34.44 7.60969 34.89V35C8.07527 35.0027 8.53507 35.1033 8.95924 35.2953C9.38341 35.4872 9.76246 35.7663 10.0718 36.1143C10.3811 36.4622 10.6138 36.8714 10.7547 37.3151C10.8956 37.7589 10.9416 38.2273 10.8897 38.69C10.8897 42.62 7.88969 43.01 6.07969 43.01L0.929688 43ZM2.92969 34.1H5.92969C6.25526 34.1293 6.58326 34.0854 6.88965 33.9715C7.19603 33.8575 7.47302 33.6764 7.7003 33.4415C7.92758 33.2065 8.09938 32.9237 8.20309 32.6137C8.30681 32.3037 8.33982 31.9744 8.29969 31.65C8.32118 31.3284 8.27144 31.0061 8.15402 30.706C8.03659 30.4059 7.85438 30.1353 7.62037 29.9138C7.38636 29.6922 7.10632 29.5249 6.80025 29.424C6.49417 29.3231 6.1696 29.291 5.84969 29.33H2.99969L2.92969 34.1ZM2.92969 41.29H5.85969C6.22791 41.3306 6.60055 41.2935 6.95355 41.1811C7.30655 41.0687 7.63207 40.8836 7.90911 40.6377C8.18614 40.3917 8.40853 40.0905 8.56193 39.7533C8.71533 39.4161 8.79632 39.0504 8.79969 38.68C8.79969 36.23 7.22969 35.8 5.13969 35.8H2.99969L2.92969 41.29Z" fill="white"/>
<path d="M16.5791 27.63H14.5391V43H16.5791V27.63Z" fill="white"/>
<path d="M20.3711 37.38V32.33C20.3711 29.27 22.0111 27.33 25.3711 27.33C28.7311 27.33 30.3711 29.33 30.3711 32.33V37.38C30.3711 41.63 28.7211 43.32 25.3711 43.32C22.0211 43.32 20.3711 41.63 20.3711 37.38ZM28.3711 37.46V32.27C28.3711 29.05 26.0711 28.95 25.3711 28.95C24.6711 28.95 22.4311 29.05 22.4311 32.27V37.46C22.4311 40.82 23.4311 41.68 25.3711 41.68C27.3111 41.68 28.3711 40.82 28.3711 37.46Z" fill="white"/>
<path d="M33.9805 43V27.63H36.0205V41.29H41.8905V43H33.9805Z" fill="white"/>
<path d="M43.7617 37.38V32.33C43.7617 29.27 45.4017 27.33 48.7617 27.33C52.1217 27.33 53.7617 29.33 53.7617 32.33V37.38C53.7617 41.63 52.1217 43.32 48.7617 43.32C45.4017 43.32 43.7617 41.63 43.7617 37.38ZM51.7617 37.46V32.27C51.7617 29.05 49.4517 28.95 48.7617 28.95C48.0717 28.95 45.8117 29.05 45.8117 32.27V37.46C45.8117 40.82 46.8117 41.68 48.7617 41.68C50.7117 41.68 51.7617 40.82 51.7617 37.46Z" fill="white"/>
<path d="M65.0002 31.74C65.0002 29.93 64.2602 29 62.2002 29C61.5502 29 59.2002 29.1 59.2002 32.32V37.51C59.2002 40.87 60.2002 41.73 62.2002 41.73C63.2034 41.7624 64.1952 41.5092 65.0602 41V36.4H62.0602V34.69H67.0602V42.17C65.5482 42.9558 63.8638 43.3511 62.1602 43.32C58.7702 43.32 57.1602 41.63 57.1602 37.38V32.33C57.1602 29.27 58.8002 27.33 62.1602 27.33C65.5202 27.33 67.2602 28.54 67.1602 31.76L65.0002 31.74Z" fill="white"/>
<path d="M73.2119 27.63H71.1719V43H73.2119V27.63Z" fill="white"/>
<path d="M84.1206 31.8601C84.2195 31.085 84.0539 30.2993 83.6506 29.6301C83.1494 29.2112 82.5137 28.9875 81.8606 29.0001C81.386 28.9488 80.9065 29.0334 80.4781 29.2441C80.0496 29.4548 79.6898 29.7828 79.4406 30.1901C79.3706 30.3601 78.9806 30.7401 78.9806 33.3801V37.4901C78.9806 41.2601 80.2606 41.7101 81.8406 41.7101C82.4606 41.7101 84.3406 41.4901 84.3606 38.4901H86.4706C86.5606 43.3501 82.9906 43.3501 81.9506 43.3501C79.9506 43.3501 76.8906 43.2201 76.8906 37.2601V32.8901C76.8906 28.5401 78.8906 27.3101 82.0306 27.3101C85.1706 27.3101 86.4206 28.8801 86.2206 31.8601H84.1206Z" fill="white"/>
<path d="M91.0017 38.4201V38.8701C90.9619 39.2344 91.0034 39.6031 91.1231 39.9495C91.2428 40.2959 91.4378 40.6115 91.6941 40.8735C91.9504 41.1355 92.2616 41.3375 92.6052 41.4648C92.9489 41.5922 93.3166 41.6418 93.6817 41.6101C95.3017 41.6101 96.5417 40.9501 96.5417 39.1201C96.5417 35.7201 89.3617 36.1201 89.3617 31.4801C89.3617 28.7601 91.3617 27.3101 94.0517 27.3101C96.9817 27.3101 98.6217 28.6701 98.4917 31.8001H96.3117C96.3117 30.1201 95.7817 29.0101 93.8517 29.0101C93.5366 28.9724 93.2171 29.0033 92.9151 29.1007C92.6131 29.1981 92.3357 29.3597 92.102 29.5744C91.8683 29.7891 91.6839 30.0518 91.5612 30.3445C91.4386 30.6372 91.3808 30.9529 91.3917 31.2701C91.3917 34.6501 98.5717 34.1601 98.5717 39.0401C98.5717 42.2701 96.2417 43.3101 93.5717 43.3101C88.8417 43.3101 88.8417 39.8901 88.8917 38.4201H91.0017Z" fill="white"/>
</svg>
