<svg width="122" height="44" viewBox="0 0 122 44" fill="none" xmlns="http://www.w3.org/2000/svg">
<path d="M8.1 13.19C8.21891 13.6186 8.21891 14.0714 8.1 14.5C8.0158 14.8758 7.79297 15.206 7.476 15.4247C7.15902 15.6435 6.77122 15.7346 6.39 15.68C6.16636 15.7076 5.9394 15.6864 5.72474 15.6178C5.51007 15.5493 5.31281 15.4351 5.1465 15.283C4.9802 15.131 4.84881 14.9447 4.76137 14.737C4.67394 14.5294 4.63253 14.3052 4.64 14.08V12.38H0V13.74C0 17.66 3.06 18.84 6.34 18.84C9.62 18.84 12.08 17.76 12.5 14.84C12.6558 13.8863 12.6558 12.9137 12.5 11.96C11.76 8.27 5.14 7.18 4.64 5.12C4.57987 4.81291 4.57987 4.49708 4.64 4.19C4.70154 3.82685 4.90177 3.50182 5.19844 3.28352C5.4951 3.06522 5.86498 2.97073 6.23 3.02C6.4445 2.99905 6.66098 3.0252 6.86432 3.09661C7.06766 3.16803 7.25294 3.283 7.40723 3.43347C7.56152 3.58395 7.68108 3.76631 7.75755 3.9678C7.83403 4.16929 7.86558 4.38505 7.85 4.6V5.69H12.2V4.43C12.2 0.61 8.79 0 6.32 0C3.22 0 0.69 0.999998 0.22 3.92C0.0706923 4.71407 0.0808903 5.52991 0.25 6.32C1 9.92 7.25 10.96 8.1 13.23" fill="#23398C"/>
<path d="M64.7795 13.16C64.9035 13.5776 64.9035 14.0223 64.7795 14.44C64.702 14.8147 64.4832 15.1452 64.1686 15.363C63.854 15.5809 63.4676 15.6693 63.0895 15.61C62.8694 15.6374 62.6459 15.617 62.4344 15.5501C62.2229 15.4831 62.0283 15.3713 61.864 15.2222C61.6997 15.0731 61.5696 14.8903 61.4825 14.6862C61.3955 14.4822 61.3535 14.2617 61.3595 14.04V12.32H56.7695V13.65C56.7695 17.53 59.7695 18.71 63.0495 18.71C66.3295 18.71 68.7295 17.64 69.1495 14.71C69.3094 13.7667 69.3094 12.8033 69.1495 11.86C68.4295 8.20998 61.8795 7.11998 61.3795 5.07998C61.3096 4.78067 61.3096 4.46928 61.3795 4.16998C61.4388 3.8096 61.6355 3.48626 61.9283 3.26802C62.2212 3.04979 62.5873 2.9537 62.9495 2.99998C63.1628 2.98036 63.3778 3.0076 63.5795 3.07978C63.7812 3.15196 63.9646 3.26734 64.117 3.41784C64.2694 3.56834 64.3871 3.75033 64.4618 3.95107C64.5365 4.15181 64.5665 4.36645 64.5495 4.57998V5.64998H68.8495V4.48997C68.8495 0.699975 65.4795 0.0999756 63.0295 0.0999756C60.0295 0.0999756 57.4595 1.09998 57.0295 3.96998C56.8755 4.74484 56.8653 5.54143 56.9995 6.31998C57.7495 9.87998 63.8895 10.9 64.7695 13.16" fill="#23398C"/>
<path d="M100.961 14.7199L100.721 0.559937H105.031V17.9599H98.8311L94.4211 3.34993L94.6711 17.9599H90.3711V0.559937H96.8511L100.961 14.7199Z" fill="#23398C"/>
<path d="M22.5914 1.86993L20.1514 18.1399H15.4414L18.6814 0.559937H26.4314L29.6414 18.1399H24.9514L22.5914 1.86993Z" fill="#23398C"/>
<path d="M48.0311 1.86993L45.0211 18.1399H40.5911L37.6011 1.86993L37.4811 18.1399H33.1211L33.5111 0.559937H40.6211L42.8211 14.3099L45.0211 0.559937H52.1211L52.5011 18.1399H48.1411L48.0311 1.86993Z" fill="#23398C"/>
<path d="M79.4192 15.5199C79.8059 15.5496 80.1902 15.4369 80.4996 15.203C80.809 14.9691 81.0222 14.6301 81.0992 14.2499C81.1147 14.0269 81.1147 13.803 81.0992 13.5799V0.579945H85.5092V13.1799C85.5092 13.5099 85.5092 14.1799 85.5092 14.3399C85.2092 17.6199 82.6392 18.6799 79.4292 18.6799C76.2192 18.6799 73.6392 17.6099 73.3392 14.3199C73.3392 14.1499 73.2792 13.4899 73.3392 13.1599V0.569946H77.7592V13.5699C77.7387 13.7928 77.7387 14.0171 77.7592 14.2399C77.8319 14.6203 78.0426 14.9604 78.3509 15.1949C78.6591 15.4293 79.0432 15.5415 79.4292 15.5099" fill="#23398C"/>
<path d="M115.791 15.32C116.195 15.3665 116.602 15.2613 116.933 15.0247C117.263 14.7882 117.494 14.4373 117.581 14.04C117.597 13.8169 117.597 13.593 117.581 13.37V10.84H115.781V8.31997H122.001V13.04C122.001 13.36 122.001 13.6 121.941 14.19C121.651 17.39 118.941 18.53 115.811 18.53C112.681 18.53 110.001 17.32 109.671 14.15C109.651 13.7669 109.651 13.383 109.671 13V5.58997C109.671 5.27997 109.671 4.72997 109.741 4.42997C110.131 1.13997 112.741 0.0899658 115.861 0.0899658C118.981 0.0899658 121.651 1.08997 121.991 4.42997C121.991 4.99997 121.991 5.58997 121.991 5.58997V6.17997H117.601V5.17997C117.601 5.17997 117.601 4.75997 117.541 4.49997C117.424 4.1314 117.193 3.80959 116.881 3.58119C116.569 3.35279 116.193 3.22967 115.806 3.22967C115.419 3.22967 115.043 3.35279 114.731 3.58119C114.419 3.80959 114.188 4.1314 114.071 4.49997C114.017 4.76976 113.993 5.04486 114.001 5.31997V13.32C113.98 13.5428 113.98 13.7671 114.001 13.99C114.077 14.3965 114.303 14.7594 114.635 15.006C114.967 15.2526 115.38 15.3648 115.791 15.32Z" fill="#23398C"/>
<path d="M0.929688 43V27.63H6.13969C8.35969 27.63 9.13969 28.36 9.70969 29.21C10.0973 29.8078 10.3183 30.4982 10.3497 31.21C10.3497 33.12 9.66969 34.4 7.60969 34.85V34.96C8.0748 34.9613 8.53442 35.0606 8.95858 35.2515C9.38274 35.4423 9.76192 35.7204 10.0714 36.0676C10.3809 36.4148 10.6137 36.8234 10.7547 37.2666C10.8957 37.7098 10.9417 38.1778 10.8897 38.64C10.8897 42.58 7.88969 42.96 6.07969 42.96L0.929688 43ZM2.92969 34.1H5.92969C6.24355 34.0954 6.55343 34.029 6.84164 33.9047C7.12985 33.7803 7.39074 33.6004 7.60942 33.3752C7.8281 33.1501 8.00029 32.884 8.11615 32.5923C8.23202 32.3006 8.28928 31.9889 8.28469 31.675C8.28009 31.3612 8.21372 31.0513 8.08937 30.7631C7.96501 30.4749 7.78511 30.214 7.55992 29.9953C7.33474 29.7766 7.06869 29.6044 6.77697 29.4885C6.48524 29.3727 6.17355 29.3154 5.85969 29.32H2.99969L2.92969 34.1ZM2.99969 41.32H5.85969C6.23042 41.3608 6.60559 41.3229 6.96066 41.2088C7.31574 41.0946 7.64272 40.9068 7.92023 40.6577C8.19773 40.4085 8.41951 40.1035 8.57106 39.7627C8.72261 39.4219 8.80052 39.053 8.79969 38.68C8.79969 36.23 7.22969 35.81 5.13969 35.81H2.99969V41.32Z" fill="#231F20"/>
<path d="M16.5791 27.63H14.5391V43H16.5791V27.63Z" fill="#231F20"/>
<path d="M20.3711 37.3799V32.3199C20.3711 29.2499 22.0111 27.3199 25.3711 27.3199C28.7311 27.3199 30.3711 29.3199 30.3711 32.3199V37.3199C30.3711 41.5799 28.7211 43.2599 25.3711 43.2599C22.0211 43.2599 20.3711 41.5799 20.3711 37.3199M28.3711 37.4099V32.3199C28.3711 29.1099 26.0711 28.9999 25.3711 28.9999C24.6711 28.9999 22.4311 29.1099 22.4311 32.3199V37.5199C22.4311 40.8799 23.4311 41.7299 25.3711 41.7299C27.3111 41.7299 28.3711 40.8799 28.3711 37.5199" fill="#231F20"/>
<path d="M33.9805 43V27.63H36.0205V41.3H41.8905V43H33.9805Z" fill="#231F20"/>
<path d="M43.7617 37.3799V32.3199C43.7617 29.2499 45.4017 27.3199 48.7617 27.3199C52.1217 27.3199 53.7617 29.3199 53.7617 32.3199V37.3199C53.7617 41.5799 52.1217 43.2599 48.7617 43.2599C45.4017 43.2599 43.7617 41.5799 43.7617 37.3199M51.7617 37.4099V32.3199C51.7617 29.1099 49.4517 28.9999 48.7617 28.9999C48.0717 28.9999 45.8117 29.1099 45.8117 32.3199V37.5199C45.8117 40.8799 46.8117 41.7299 48.7617 41.7299C50.7117 41.7299 51.7617 40.8799 51.7617 37.5199" fill="#231F20"/>
<path d="M64.9992 31.7399C64.9992 29.9299 64.2292 28.9499 62.1692 28.9499C61.5192 28.9499 59.1692 29.0599 59.1692 32.2699V37.4699C59.1692 40.8299 60.1692 41.6799 62.1692 41.6799C63.1681 41.7325 64.1609 41.4964 65.0292 40.9999V36.3999H62.0292V34.6999H67.0292V42.1699C65.5382 42.9445 63.8793 43.3395 62.1992 43.3199C58.8092 43.3199 57.1992 41.6399 57.1992 37.3799V32.3199C57.1992 29.2499 58.8392 27.3199 62.1992 27.3199C65.5592 27.3199 67.2992 28.5399 67.1992 31.7499L64.9992 31.7399Z" fill="#231F20"/>
<path d="M73.2119 27.63H71.1719V43H73.2119V27.63Z" fill="#231F20"/>
<path d="M84.1214 31.8699C84.2202 31.0917 84.0547 30.3028 83.6514 29.6299C83.1545 29.2002 82.5183 28.9657 81.8614 28.9699C81.3867 28.9187 80.9073 29.0033 80.4788 29.214C80.0504 29.4247 79.6906 29.7527 79.4414 30.1599C79.3714 30.3199 79.0014 30.7199 79.0014 33.3199V37.4299C79.0014 41.1899 80.2814 41.6399 81.8614 41.6399C82.4814 41.6399 84.3614 41.4299 84.3814 38.4299H86.4914C86.5614 43.3199 83.0014 43.3199 82.0014 43.3199C80.0014 43.3199 76.9414 43.1899 76.9414 37.2299V32.8899C76.9414 28.5499 78.9414 27.3099 82.0814 27.3099C85.2214 27.3099 86.4714 28.8899 86.2714 31.8699H84.1214Z" fill="#231F20"/>
<path d="M91.0017 38.4199V38.8699C90.9603 39.2351 91.0006 39.6048 91.1196 39.9525C91.2386 40.3002 91.4334 40.617 91.6898 40.8802C91.9463 41.1434 92.258 41.3463 92.6025 41.4742C92.947 41.6021 93.3156 41.6519 93.6817 41.6199C95.3017 41.6199 96.5417 40.9599 96.5417 39.1299C96.5417 35.7199 89.3617 36.1299 89.3617 31.4799C89.3617 28.7599 91.3617 27.3099 94.0517 27.3099C96.9817 27.3099 98.6217 28.6699 98.4917 31.7999H96.3117C96.3117 30.1199 95.7817 29.0099 93.8517 29.0099C93.5322 28.9714 93.2082 29.0034 92.9025 29.1037C92.5967 29.2039 92.3167 29.3701 92.0821 29.5903C91.8476 29.8106 91.6642 30.0796 91.5449 30.3785C91.4256 30.6773 91.3733 30.9987 91.3917 31.3199C91.3917 34.7099 98.5717 34.2199 98.5717 39.0899C98.5717 42.3299 96.2417 43.3699 93.5717 43.3699C88.8417 43.3699 88.8417 39.9399 88.8917 38.4699L91.0017 38.4199Z" fill="#231F20"/>
</svg>
