<svg width="37" height="31" viewBox="0 0 37 31" fill="none" xmlns="http://www.w3.org/2000/svg">
<path fill-rule="evenodd" clip-rule="evenodd" d="M33.1844 7.98983V8.95122C33.2048 11.7471 32.6691 14.5191 31.6086 17.1061C30.548 19.693 28.9836 22.0433 27.0065 24.0203C25.0294 25.9972 22.679 27.5613 20.0919 28.6217C17.5049 29.6821 14.7328 30.2175 11.937 30.1969C7.88339 30.2155 3.91206 29.0536 0.507812 26.8529C1.10618 26.884 1.70637 26.884 2.30473 26.8529C5.66313 26.9019 8.93875 25.8099 11.5958 23.7553C10.047 23.7121 8.54999 23.188 7.31241 22.2557C6.07482 21.3235 5.158 20.0292 4.68908 18.5524C5.15427 18.6655 5.63406 18.7185 6.11384 18.7075C6.77059 18.7039 7.42733 18.6218 8.06583 18.4594C6.39956 18.0858 4.91079 17.1545 3.8459 15.8195C2.78101 14.4846 2.20383 12.8261 2.20987 11.1185C3.24242 11.7022 4.40266 12.0197 5.58663 12.0489C3.9679 11.0029 2.81205 9.37589 2.35725 7.50307C1.90245 5.63025 2.18336 3.65432 3.14208 1.98245C5.02372 4.30757 7.37638 6.20788 10.0453 7.55836C12.7141 8.90884 15.6387 9.67886 18.6266 9.81776C18.4935 9.25921 18.4207 8.68797 18.4095 8.11388C18.4095 6.13404 19.196 4.2353 20.596 2.83534C21.9959 1.43539 23.8947 0.648899 25.8745 0.648899C26.9018 0.637407 27.9202 0.840826 28.8643 1.2461C29.8083 1.65137 30.6572 2.24954 31.3565 3.00223C32.9886 2.66457 34.55 2.04739 35.9719 1.17794C35.4246 2.91649 34.2571 4.39416 32.6882 5.32637C34.1784 5.1555 35.6318 4.74781 36.9935 4.11869C35.9618 5.62337 34.6722 6.9339 33.1844 7.98983Z" fill="white" fill-opacity="0.7"/>
</svg>
