<svg width="37" height="26" viewBox="0 0 37 26" fill="none" xmlns="http://www.w3.org/2000/svg">
<path d="M32.7395 1.00765C33.51 1.20664 34.2141 1.60622 34.78 2.16571C35.3459 2.72521 35.7534 3.42465 35.9612 4.19285C36.4921 7.10806 36.7456 10.0671 36.7219 13.0279C36.7407 15.9604 36.486 18.8883 35.9612 21.7735C35.7676 22.5582 35.3663 23.2764 34.7994 23.8526C34.2325 24.4288 33.521 24.8417 32.7395 25.0481C28.0091 25.6282 23.2459 25.8873 18.4809 25.8307C13.7159 25.889 8.9523 25.6275 4.22227 25.0481C3.45176 24.8491 2.74772 24.4495 2.18181 23.89C1.61591 23.3305 1.20833 22.6311 1.00058 21.8629C0.470371 18.9483 0.215672 15.9902 0.239854 13.0279C0.221062 10.096 0.47574 7.16868 1.00058 4.28407C1.19391 3.49898 1.59509 2.78044 2.16198 2.20392C2.72887 1.6274 3.44055 1.21418 4.22227 1.00765C8.95447 0.460361 13.7177 0.228678 18.4809 0.316243C23.2439 0.22774 28.0074 0.458726 32.7395 1.00765ZM14.7411 7.67906V18.3767L24.2876 13.0279L14.7411 7.67906Z" fill="white" fill-opacity="0.7"/>
</svg>
